<?xml version="1.0" encoding="UTF-8" standalone="no"?>
<svg
   width="16"
   height="16"
   fill="currentColor"
   class="bi bi-music-note-list"
   viewBox="0 0 16 16"
   version="1.1"
   id="svg12"
   sodipodi:docname="icon-png.svg"
   inkscape:export-filename="D:\publiczny\ff media controler addon\media-controller-extension-main\src\icon.png"
   inkscape:export-xdpi="1536"
   inkscape:export-ydpi="1536"
   inkscape:version="1.1.1 (3bf5ae0d25, 2021-09-20)"
   xmlns:inkscape="http://www.inkscape.org/namespaces/inkscape"
   xmlns:sodipodi="http://sodipodi.sourceforge.net/DTD/sodipodi-0.dtd"
   xmlns="http://www.w3.org/2000/svg"
   xmlns:svg="http://www.w3.org/2000/svg">
  <sodipodi:namedview
     id="namedview14"
     pagecolor="#505050"
     bordercolor="#eeeeee"
     borderopacity="1"
     inkscape:pageshadow="0"
     inkscape:pageopacity="0"
     inkscape:pagecheckerboard="0"
     showgrid="false"
     inkscape:zoom="22.627417"
     inkscape:cx="7.6455921"
     inkscape:cy="3.2482718"
     inkscape:window-width="1920"
     inkscape:window-height="1012"
     inkscape:window-x="-8"
     inkscape:window-y="-8"
     inkscape:window-maximized="1"
     inkscape:current-layer="svg12" />
  <defs
     id="defs2" />
  <rect
     style="fill:#000000;stroke:none;stroke-width:0.2;stroke-linecap:round;stroke-linejoin:round;stroke-miterlimit:4;stroke-dasharray:none;paint-order:normal"
     id="rect1470"
     width="15.600718"
     height="15.688537"
     x="0.20453143"
     y="0.15798883"
     rx="1.7686009"
     ry="1.7686009" />
  <path
     fill-rule="evenodd"
     d="M 11.190287,4.0344486 V 12.010167 H 10.392716 V 4.0344486 Z"
     style="fill:#ffffff;stroke:#ffffff;stroke-width:0.56;stroke-linecap:round;stroke-linejoin:round;stroke-miterlimit:4;stroke-dasharray:none;paint-order:normal"
     id="path6" />
  <path
     d="m 11.190287,12.010167 c 0,0.881317 -0.89328,1.595144 -1.9939292,1.595144 -1.1006492,0 -1.9939297,-0.713827 -1.9939297,-1.595144 0,-0.881317 0.8932805,-1.595144 1.9939297,-1.595144 1.1006492,0 1.9939292,0.713827 1.9939292,1.595144 z"
     style="fill:#ffffff;stroke:#ffffff;stroke-width:0.56;stroke-linecap:round;stroke-linejoin:round;stroke-miterlimit:4;stroke-dasharray:none"
     id="path4" />
  <path
     d="m 10.392716,3.8908856 a 0.79757186,0.79757186 0 0 1 0.641247,-0.7816204 l 2.392716,-0.4785431 a 0.79757186,0.79757186 0 0 1 0.953896,0.7816204 v 1.4196779 l -3.987859,0.7975719 z"
     style="fill:#ffffff;stroke:#ffffff;stroke-width:0.56;stroke-linecap:round;stroke-linejoin:round;stroke-miterlimit:4;stroke-dasharray:none"
     id="path8" />
  <path
     fill-rule="evenodd"
     d="M 1.6194251,10.813809 A 0.39878593,0.39878593 0 0 1 2.018211,10.415023 h 2.7915015 a 0.398786,0.398786 0 0 1 0,0.797572 H 2.018211 A 0.39878593,0.39878593 0 0 1 1.6194251,10.813809 Z m 0,-3.1902871 A 0.39878593,0.39878593 0 0 1 2.018211,7.224736 H 8 A 0.39878595,0.39878595 0 0 1 8,8.0223079 H 2.018211 A 0.39878593,0.39878593 0 0 1 1.6194251,7.6235219 Z m 0,-3.1902874 A 0.39878593,0.39878593 0 0 1 2.018211,4.0344486 H 8 A 0.39878593,0.39878593 0 0 1 8,4.8320204 H 2.018211 A 0.39878593,0.39878593 0 0 1 1.6194251,4.4332345 Z"
     style="fill:#ffffff;stroke:#ffffff;stroke-width:0.56;stroke-linecap:round;stroke-linejoin:round;stroke-miterlimit:4;stroke-dasharray:none"
     id="path10" />
</svg>
